<svg width="40" height="38" viewBox="0 0 40 38" fill="none" xmlns="http://www.w3.org/2000/svg">
<rect y="10" width="40" height="4.66667" rx="2.33333" fill="white"/>
<rect y="21.3334" width="40" height="4.66667" rx="2.33333" fill="white"/>
<rect y="32.6666" width="40" height="4.66667" rx="2.33333" fill="white"/>
<path d="M1.525 7V2.1H2.666L4.689 5.432H4.087L6.068 2.1H7.209L7.223 7H5.942L5.935 4.039H6.152L4.675 6.517H4.059L2.54 4.039H2.799V7H1.525ZM7.77523 7L9.93823 2.1H11.3032L13.4732 7H12.0312L10.3372 2.779H10.8832L9.18923 7H7.77523ZM8.95823 6.048L9.31523 5.026H11.7092L12.0662 6.048H8.95823ZM14.0348 7V2.1H17.6258L17.6188 3.199H15.0918L15.3998 2.891V7H14.0348ZM16.7918 7L18.9548 2.1H20.3198L22.4898 7H21.0478L19.3538 2.779H19.8998L18.2058 7H16.7918ZM17.9748 6.048L18.3318 5.026H20.7258L21.0828 6.048H17.9748ZM22.6594 6.622L23.0724 5.649C23.2824 5.75633 23.5017 5.838 23.7304 5.894C23.959 5.95 24.1807 5.98267 24.3954 5.992C24.61 6.00133 24.8037 5.98733 24.9764 5.95C25.1537 5.908 25.2937 5.845 25.3964 5.761C25.499 5.677 25.5504 5.56733 25.5504 5.432C25.5504 5.28267 25.4874 5.17533 25.3614 5.11C25.24 5.04 25.079 5.005 24.8784 5.005H23.6254V3.99H24.7664C24.953 3.99 25.0977 3.95267 25.2004 3.878C25.303 3.80333 25.3544 3.703 25.3544 3.577C25.3544 3.45567 25.31 3.36 25.2214 3.29C25.1327 3.21533 25.0137 3.164 24.8644 3.136C24.715 3.10333 24.547 3.09167 24.3604 3.101C24.1737 3.11033 23.98 3.14533 23.7794 3.206C23.5787 3.262 23.385 3.339 23.1984 3.437L22.7924 2.401C23.1237 2.23767 23.4714 2.12567 23.8354 2.065C24.1994 2.00433 24.554 1.99033 24.8994 2.023C25.2447 2.05567 25.5574 2.13267 25.8374 2.254C26.1174 2.37067 26.339 2.527 26.5024 2.723C26.6704 2.919 26.7544 3.15 26.7544 3.416C26.7544 3.64933 26.6914 3.857 26.5654 4.039C26.4394 4.221 26.269 4.36333 26.0544 4.466C25.8397 4.56867 25.5924 4.62 25.3124 4.62L25.3474 4.326C25.6694 4.326 25.9494 4.382 26.1874 4.494C26.43 4.606 26.6167 4.76 26.7474 4.956C26.8827 5.14733 26.9504 5.369 26.9504 5.621C26.9504 5.859 26.8874 6.07133 26.7614 6.258C26.64 6.44 26.4697 6.594 26.2504 6.72C26.031 6.846 25.779 6.93933 25.4944 7C25.2144 7.06533 24.9134 7.09567 24.5914 7.091C24.2694 7.091 23.9427 7.05133 23.6114 6.972C23.2847 6.89267 22.9674 6.776 22.6594 6.622ZM27.6998 7V2.1H29.0648V4.977L31.0878 2.1H32.3898V7H31.0248V4.13L29.0088 7H27.6998ZM36.718 2.1H38.104V7H36.718V2.1ZM34.828 7H33.442V2.1H34.828V7ZM36.816 5.089H34.73V3.941H36.816V5.089Z" fill="white"/>
</svg>
