<svg width="17" height="16" viewBox="0 0 17 16" fill="none" xmlns="http://www.w3.org/2000/svg">
<path d="M10.8838 0.631196C10.7914 0.559332 10.6807 0.514852 10.5642 0.502822C10.4478 0.490792 10.3304 0.511695 10.2252 0.56315C10.1201 0.614605 10.0315 0.694545 9.96962 0.793868C9.90771 0.89319 9.87492 1.0079 9.875 1.12495V3.6162C9.15691 3.64629 8.44831 3.79147 7.77625 4.0462C6.73423 4.44008 5.8259 5.12252 5.1575 6.01369C4.37875 7.04619 3.80625 8.47869 3.6275 10.4437C3.61566 10.5718 3.64362 10.7004 3.70756 10.8119C3.7715 10.9235 3.86831 11.0127 3.98478 11.0672C4.10125 11.1218 4.23171 11.1391 4.35837 11.1167C4.48502 11.0944 4.60171 11.0335 4.6925 10.9424C6.1775 9.45494 7.65375 8.72244 8.745 8.35869C9.195 8.20869 9.58 8.1212 9.875 8.0712V10.4999C9.87497 10.6204 9.90976 10.7383 9.97518 10.8395C10.0406 10.9407 10.1339 11.0208 10.2438 11.0702C10.3536 11.1196 10.4755 11.1361 10.5945 11.1179C10.7136 11.0997 10.8249 11.0474 10.915 10.9674L16.54 5.96745C16.6087 5.90653 16.6631 5.83123 16.6994 5.74689C16.7357 5.66255 16.753 5.57125 16.75 5.47948C16.747 5.38771 16.7239 5.29773 16.6822 5.21593C16.6405 5.13413 16.5813 5.06252 16.5088 5.0062L10.8838 0.631196ZM10.4288 4.8712H10.4325C10.5197 4.88028 10.6078 4.87099 10.6912 4.84395C10.7745 4.8169 10.8513 4.77269 10.9165 4.71416C10.9818 4.65563 11.034 4.58409 11.0699 4.50413C11.1058 4.42418 11.1246 4.33759 11.125 4.24995V2.40245L15.1488 5.53244L11.125 9.10744V7.37495C11.125 7.20918 11.0592 7.05021 10.9419 6.933C10.8247 6.81579 10.6658 6.74995 10.5 6.74995H10.4438C10.253 6.75873 10.0628 6.77667 9.87375 6.8037C9.49875 6.8587 8.97375 6.96369 8.34875 7.17244C7.202 7.56194 6.12658 8.13617 5.165 8.87245C5.4075 7.97744 5.76 7.29245 6.15625 6.76619C6.68347 6.06232 7.40077 5.52369 8.22375 5.2137C8.8787 4.96633 9.57507 4.84709 10.275 4.86244C10.3313 4.8637 10.3738 4.8662 10.4 4.8687L10.4288 4.8712ZM3.625 1.74995C2.7962 1.74995 2.00134 2.07919 1.41529 2.66524C0.82924 3.25129 0.5 4.04614 0.5 4.87495V12.3749C0.5 13.2037 0.82924 13.9986 1.41529 14.5847C2.00134 15.1707 2.7962 15.4999 3.625 15.4999H11.125C11.9538 15.4999 12.7487 15.1707 13.3347 14.5847C13.9208 13.9986 14.25 13.2037 14.25 12.3749V11.1249C14.25 10.9592 14.1842 10.8002 14.0669 10.683C13.9497 10.5658 13.7908 10.4999 13.625 10.4999C13.4592 10.4999 13.3003 10.5658 13.1831 10.683C13.0658 10.8002 13 10.9592 13 11.1249V12.3749C13 12.8722 12.8025 13.3491 12.4508 13.7008C12.0992 14.0524 11.6223 14.2499 11.125 14.2499H3.625C3.12772 14.2499 2.65081 14.0524 2.29918 13.7008C1.94754 13.3491 1.75 12.8722 1.75 12.3749V4.87495C1.75 4.37766 1.94754 3.90075 2.29918 3.54912C2.65081 3.19749 3.12772 2.99995 3.625 2.99995H6.125C6.29076 2.99995 6.44973 2.9341 6.56694 2.81689C6.68415 2.69968 6.75 2.54071 6.75 2.37495C6.75 2.20919 6.68415 2.05021 6.56694 1.933C6.44973 1.81579 6.29076 1.74995 6.125 1.74995H3.625Z" fill="white"/>
</svg>
